<?xml version="1.0" encoding="utf-8"?>
<!-- Generator: Adobe Illustrator 16.0.0, SVG Export Plug-In . SVG Version: 6.00 Build 0)  -->
<!DOCTYPE svg PUBLIC "-//W3C//DTD SVG 1.1//EN" "http://www.w3.org/Graphics/SVG/1.1/DTD/svg11.dtd">
<svg version="1.1" id="Layer_1" xmlns="http://www.w3.org/2000/svg" xmlns:xlink="http://www.w3.org/1999/xlink" x="0px" y="0px"
	 width="692.5px" height="354.633px" viewBox="0 0 692.5 354.633" enable-background="new 0 0 692.5 354.633" xml:space="preserve">
<g id="Outline" display="none">
	<g display="inline">
		<g>
			<path fill="#84BDCC" d="M183.666,426.831c19.063-0.84,37.754,8.366,50.423,22.323c15.398,16.963,15.74,40.947,15.743,62.51
				c0,3.225,5,3.225,5,0c-0.003-22.945-1.006-46.455-16.281-64.975c-12.948-15.699-34.531-25.758-54.886-24.858
				C180.455,421.973,180.441,426.974,183.666,426.831L183.666,426.831z"/>
		</g>
	</g>
	<g display="inline">
		<g>
			<path fill="#84BDCC" d="M249.666,516.164c13.254,0.422,25.894-6.565,37.614-11.957c13.907-6.398,27.456-13.554,41.064-20.551
				c27.612-14.195,56.035-25.673,85.045-36.66c28.069-10.63,56.59-20.322,86.119-26c30.521-5.867,61.594-6.19,92.149-0.438
				c37.146,6.994,72.744,21.031,110.753,23.354c16.251,0.991,32.83-0.778,48.313-5.881c14.714-4.849,27.885-13.146,40.041-22.599
				c2.544-1.977-1.021-5.486-3.533-3.533c-21.013,16.329-44.249,25.934-70.965,27.139c-30.095,1.356-59.698-7.428-88.479-15.055
				c-28.957-7.676-57.853-13.445-87.956-12.565c-29.567,0.864-58.673,7.539-86.792,16.362
				c-17.288,5.424-34.269,11.789-51.175,18.289c-17.276,6.644-34.612,13.132-51.375,21.006
				c-16.626,7.811-32.785,16.579-49.197,24.818c-8.047,4.041-16.178,7.895-24.414,11.531c-8.677,3.834-17.508,8.05-27.214,7.74
				C246.44,511.063,246.45,516.063,249.666,516.164L249.666,516.164z"/>
		</g>
	</g>
	<g display="inline">
		<g>
			<path fill="#84BDCC" d="M722.564,380.563c-21.433,18.754-49.644,17.555-76.201,14.373c-30.348-3.633-60.374-9.3-90.693-13.039
				c-63.517-7.834-127.495,1.064-190.152,11.439c-30.791,5.098-61.581,9.725-92.208,15.765
				c-30.393,5.993-61.193,11.716-92.311,10.063c-3.224-0.171-3.207,4.83,0,5c30.307,1.606,60.38-3.745,90.005-9.527
				c30.589-5.971,61.275-10.76,92.02-15.846c63.633-10.525,128.119-19.582,192.646-11.895c31.899,3.801,63.451,9.976,95.396,13.588
				c26.619,3.01,53.896,2.109,75.033-16.387C728.531,381.973,724.979,378.45,722.564,380.563L722.564,380.563z"/>
		</g>
	</g>
</g>
<g id="Layer_3" display="none">
	<rect display="inline" fill="#282828" width="1000" height="600"/>
</g>
<g id="Swoosh">
	<g>
		<path fill="#FFFFFF" d="M134.76,155.08c-14.172,35.828-51.872,49.732-76.203,49.732C18.985,204.812,0,187.166,0,139.037
			C0,90.641,23.262,0,93.315,0c25.134,0,44.653,9.893,44.653,35.828c0,14.172-5.081,24.6-18.717,24.6
			c-4.278,0-10.16-1.07-15.241-6.953c6.417-3.208,12.3-14.438,12.3-24.598c0-8.557-4.278-16.311-16.311-16.311
			c-29.412,0-55.615,70.32-55.615,124.866c0,24.599,6.418,41.711,32.086,41.711c20.855,0,39.84-10.16,52.139-26.737L134.76,155.08z"
			/>
		<path fill="#FFFFFF" d="M194.921,90.106c-10.429,0-18.718,16.31-20.321,23.529l-18.449,86.898h-38.502L156.42,18.715l39.571-5.348
			l-14.438,67.38c11.229-12.834,22.995-14.973,31.284-14.973c17.11,0,29.679,8.822,29.679,30.213
			c0,21.658-12.835,54.011-12.835,68.984c0,6.685,2.674,11.229,10.695,11.229c11.766,0,16.577-9.625,22.461-23.529h11.229
			c-14.974,43.851-35.562,49.465-49.732,49.465c-23.263,0-31.552-14.973-31.552-30.213c0-18.182,12.033-51.069,12.033-68.183
			C204.815,94.919,201.606,90.106,194.921,90.106z"/>
		<path fill="#FFFFFF" d="M318.183,179.677c21.123,0,33.957-11.764,47.326-27.005h9.091c-15.239,24.6-37.968,49.466-73.529,49.466
			c-25.134,0-41.711-12.301-41.711-42.514c0-30.748,17.379-95.188,72.192-95.188c23.796,0,29.411,12.3,29.411,25.669
			c0,30.749-29.411,54.545-61.497,56.417c-0.268,3.743-0.534,7.486-0.534,10.695C298.932,175.4,305.348,179.677,318.183,179.677z
			 M333.691,78.609c-13.637,0-26.737,28.609-32.085,55.08c20.588-1.337,38.771-21.926,38.771-44.117
			C340.376,82.886,338.772,78.609,333.691,78.609z"/>
		<path fill="#FFFFFF" d="M420.855,179.677c21.122,0,33.958-11.764,47.326-27.005h9.092c-15.241,24.6-37.97,49.466-73.53,49.466
			c-25.133,0-41.711-12.301-41.711-42.514c0-30.748,17.38-95.188,72.191-95.188c23.798,0,29.412,12.3,29.412,25.669
			c0,30.749-29.412,54.545-61.497,56.417c-0.269,3.743-0.535,7.486-0.535,10.695C401.604,175.4,408.021,179.677,420.855,179.677z
			 M436.364,78.609c-13.638,0-26.737,28.609-32.086,55.08c20.588-1.337,38.771-21.926,38.771-44.117
			C443.048,82.886,441.444,78.609,436.364,78.609z"/>
		<path fill="#FFFFFF" d="M524.865,66.843l-3.478,16.578c9.357-8.021,19.521-16.578,32.354-16.578
			c12.031,0,18.449,9.894,18.449,20.055c0,9.357-6.148,19.518-19.252,19.518c-14.974,0-7.486-17.646-15.509-17.646
			s-12.834,4.011-19.52,10.16L496.52,200.534h-38.502l28.343-133.69L524.865,66.843L524.865,66.843z"/>
		<g>
			<path fill="#FFFFFF" d="M691.709,66.843h-38.771l-18.182,85.829c-4.012,13.369-10.963,23.529-21.391,23.529
				c-6.148,0-8.021-5.614-8.021-11.765c0-2.139,0.269-4.545,0.803-6.684l19.253-90.91h-38.505l-18.182,85.829
				c-1.336,6.417-2.139,12.3-2.139,17.38c0,22.46,12.565,32.085,28.608,32.085c9.091,0,21.123-2.405,32.619-15.508l-2.674,11.766
				c-17.506,5.158-32.85,10.447-40.697,21.374c-0.002-0.009-0.006-0.017-0.008-0.021c-1.506,2.281-3.658,3.902-5.611,5.811
				c-1.799,1.758-3.646,3.471-5.569,5.09c-3.894,3.275-8.107,6.142-12.607,8.516c-17.324,9.138-38.26,12.886-57.559,14.91
				c-5.192,0.544-10.409,0.884-15.627,1.056c-17.983,0.595-36.046-0.621-53.942-1.729c-15.655-0.969-31.232-2.905-46.808-4.725
				c-19.641-2.293-39.181-5.1-58.706-8.205c-130-21.5-285.001,22.164-285.001,22.164c88.667,8.666,68.667,92,68.667,92
				c4.479-3.451,9.031-6.563,13.908-9.451c26.137-15.486,54.103-29.141,83.045-38.438c20.358-6.541,41.396-10.461,62.707-12.099
				c19.5-1.498,39.027-2.381,58.574-1.328c18.044,0.973,36.008,3.086,54.059,3.949c17.145,0.818,34.337,0.789,51.481,0.01
				c13.406-0.61,26.785-1.703,40.125-3.152c45.429-4.938,90.231-14.166,134.985-23.176c25.666-5.167,34.986-18.452,34.986-18.452
				s-0.07,0.002-0.193,0.002c5.914-6.849,10.828-16.646,13.75-30.572L691.709,66.843z M623.26,206.951l-3.209,15.775
				c-3.477,15.774-10.428,20.854-15.774,20.854c-5.884,0-10.695-5.08-10.695-8.824C593.58,220.32,606.414,212.566,623.26,206.951z"
				/>
		</g>
	</g>
</g>
</svg>
