<?xml version="1.0" encoding="utf-8"?>
<!-- Generator: Adobe Illustrator 16.0.0, SVG Export Plug-In . SVG Version: 6.00 Build 0)  -->
<!DOCTYPE svg PUBLIC "-//W3C//DTD SVG 1.1//EN" "http://www.w3.org/Graphics/SVG/1.1/DTD/svg11.dtd">
<svg version="1.1" xmlns="http://www.w3.org/2000/svg" xmlns:xlink="http://www.w3.org/1999/xlink" x="0px" y="0px" width="86px"
	 height="41px" viewBox="0 0 86 41" enable-background="new 0 0 86 41" xml:space="preserve">
<g id="Outline" display="none">
	<g display="inline">
		<g>
			<path fill="#84BDCC" d="M-187.667,200.164c19.063-0.84,37.754,8.366,50.423,22.323c15.398,16.963,15.74,40.949,15.743,62.51
				c0,3.225,5,3.225,5,0c-0.003-22.945-1.006-46.455-16.281-64.975c-12.948-15.699-34.531-25.756-54.886-24.858
				C-190.879,195.306-190.893,200.307-187.667,200.164L-187.667,200.164z"/>
		</g>
	</g>
	<g display="inline">
		<g>
			<path fill="#84BDCC" d="M-121.667,289.497c13.254,0.422,25.894-6.565,37.614-11.957c13.907-6.398,27.454-13.554,41.064-20.551
				c27.612-14.195,56.035-25.673,85.045-36.66c28.069-10.63,56.59-20.322,86.119-26c30.52-5.867,61.594-6.19,92.149-0.438
				c37.148,6.994,72.744,21.031,110.753,23.352c16.251,0.991,32.83-0.778,48.315-5.881c14.713-4.847,27.883-13.146,40.041-22.597
				c2.544-1.977-1.022-5.488-3.535-3.535c-21.011,16.331-44.249,25.934-70.963,27.139c-30.095,1.358-59.7-7.428-88.479-15.055
				c-28.957-7.674-57.851-13.445-87.956-12.565c-29.567,0.864-58.673,7.539-86.792,16.362
				c-17.288,5.424-34.269,11.789-51.175,18.289c-17.276,6.644-34.612,13.132-51.375,21.006
				c-16.626,7.811-32.785,16.579-49.197,24.82c-8.047,4.041-16.178,7.893-24.414,11.531c-8.677,3.834-17.508,8.05-27.214,7.74
				C-124.894,284.395-124.884,289.395-121.667,289.497L-121.667,289.497z"/>
		</g>
	</g>
	<g display="inline">
		<g>
			<path fill="#84BDCC" d="M351.231,153.896c-21.431,18.752-49.642,17.553-76.201,14.373c-30.346-3.633-60.374-9.3-90.693-13.04
				c-63.517-7.834-127.495,1.065-190.152,11.44c-30.791,5.098-61.581,9.725-92.208,15.765
				c-30.393,5.993-61.193,11.714-92.311,10.063c-3.224-0.171-3.207,4.83,0,5c30.307,1.608,60.38-3.745,90.005-9.527
				c30.589-5.971,61.275-10.76,92.018-15.846c63.633-10.525,128.12-19.582,192.648-11.895c31.899,3.801,63.451,9.976,95.395,13.588
				c26.62,3.01,53.896,2.111,75.035-16.386C357.198,155.305,353.646,151.783,351.231,153.896L351.231,153.896z"/>
		</g>
	</g>
</g>
<g id="Swoosh">
	<circle fill="#ED1C24" cx="20.5" cy="20.5" r="20.5"/>
	<circle fill="#272727" cx="65.5" cy="20.5" r="20.5"/>
</g>
</svg>
