<?xml version="1.0" encoding="utf-8"?>
<!-- Generator: Adobe Illustrator 16.0.0, SVG Export Plug-In . SVG Version: 6.00 Build 0)  -->
<!DOCTYPE svg PUBLIC "-//W3C//DTD SVG 1.1//EN" "http://www.w3.org/Graphics/SVG/1.1/DTD/svg11.dtd">
<svg version="1.1" xmlns="http://www.w3.org/2000/svg" xmlns:xlink="http://www.w3.org/1999/xlink" x="0px" y="0px"
	 width="691.709px" height="354.633px" viewBox="0 0 691.709 354.633" enable-background="new 0 0 691.709 354.633"
	 xml:space="preserve">
<g id="Outline" display="none">
	<g display="inline">
		<g>
			<path fill="#84BDCC" d="M42.586,268.82c19.063-0.84,37.754,8.366,50.423,22.323c15.398,16.963,15.74,40.949,15.743,62.51
				c0,3.225,5,3.225,5,0c-0.003-22.945-1.006-46.455-16.281-64.975c-12.948-15.699-34.531-25.756-54.886-24.858
				C39.375,263.961,39.361,268.962,42.586,268.82L42.586,268.82z"/>
		</g>
	</g>
	<g display="inline">
		<g>
			<path fill="#84BDCC" d="M108.586,358.153c13.254,0.422,25.894-6.565,37.614-11.957c13.907-6.398,27.454-13.554,41.064-20.551
				c27.612-14.195,56.035-25.673,85.045-36.66c28.069-10.63,56.59-20.322,86.119-26c30.52-5.867,61.594-6.19,92.149-0.438
				c37.148,6.994,72.744,21.031,110.753,23.352c16.251,0.991,32.83-0.778,48.315-5.881c14.713-4.847,27.883-13.146,40.041-22.597
				c2.544-1.977-1.022-5.488-3.535-3.535c-21.011,16.331-44.249,25.934-70.963,27.139c-30.095,1.358-59.7-7.428-88.479-15.055
				c-28.957-7.674-57.851-13.445-87.956-12.565c-29.567,0.864-58.673,7.539-86.792,16.362
				c-17.288,5.424-34.269,11.789-51.175,18.289c-17.276,6.644-34.612,13.132-51.375,21.006
				c-16.626,7.811-32.785,16.579-49.197,24.82c-8.047,4.041-16.178,7.893-24.414,11.531c-8.677,3.834-17.508,8.05-27.214,7.74
				C105.36,353.05,105.37,358.05,108.586,358.153L108.586,358.153z"/>
		</g>
	</g>
	<g display="inline">
		<g>
			<path fill="#84BDCC" d="M581.484,222.552c-21.431,18.752-49.642,17.553-76.201,14.373c-30.346-3.633-60.374-9.3-90.693-13.04
				c-63.517-7.834-127.495,1.065-190.152,11.44c-30.791,5.098-61.581,9.725-92.208,15.765
				c-30.393,5.993-61.193,11.714-92.311,10.063c-3.224-0.171-3.207,4.83,0,5c30.307,1.608,60.38-3.745,90.005-9.527
				c30.589-5.971,61.275-10.76,92.018-15.846c63.633-10.525,128.12-19.582,192.648-11.895c31.899,3.801,63.451,9.976,95.395,13.588
				c26.62,3.01,53.896,2.111,75.035-16.386C587.451,223.96,583.899,220.439,581.484,222.552L581.484,222.552z"/>
		</g>
	</g>
</g>
<g id="Swoosh">
	<g>
		<path fill="#ED1C24" d="M134.76,155.081c-14.171,35.828-51.872,49.732-76.204,49.732C18.984,204.813,0,187.166,0,139.038
			C0,90.642,23.262,0,93.315,0c25.134,0,44.653,9.893,44.653,35.829c0,14.171-5.081,24.599-18.717,24.599
			c-4.278,0-10.16-1.07-15.241-6.952c6.417-3.208,12.3-14.438,12.3-24.599c0-8.556-4.278-16.31-16.311-16.31
			c-29.412,0-55.615,70.321-55.615,124.866c0,24.599,6.417,41.711,32.085,41.711c20.855,0,39.84-10.16,52.139-26.737L134.76,155.081
			z"/>
		<path fill="#ED1C24" d="M194.921,90.107c-10.428,0-18.717,16.31-20.321,23.529l-18.449,86.898h-38.503l38.771-181.818
			l39.572-5.348l-14.438,67.38c11.23-12.834,22.995-14.973,31.284-14.973c17.112,0,29.679,8.823,29.679,30.214
			c0,21.658-12.834,54.01-12.834,68.984c0,6.685,2.674,11.229,10.695,11.229c11.765,0,16.578-9.625,22.46-23.529h11.23
			c-14.973,43.851-35.562,49.466-49.733,49.466c-23.262,0-31.551-14.974-31.551-30.214c0-18.182,12.032-51.07,12.032-68.182
			C204.814,94.919,201.605,90.107,194.921,90.107z"/>
		<path fill="#ED1C24" d="M318.183,179.679c21.123,0,33.957-11.765,47.326-27.006h9.091c-15.241,24.6-37.968,49.466-73.529,49.466
			c-25.134,0-41.711-12.3-41.711-42.514c0-30.749,17.38-95.187,72.193-95.187c23.796,0,29.411,12.299,29.411,25.668
			c0,30.749-29.411,54.545-61.497,56.417c-0.267,3.743-0.535,7.486-0.535,10.695C298.931,175.401,305.348,179.679,318.183,179.679z
			 M333.69,78.609c-13.636,0-26.738,28.61-32.085,55.081c20.588-1.337,38.77-21.925,38.77-44.118
			C340.375,82.888,338.771,78.609,333.69,78.609z"/>
		<path fill="#ED1C24" d="M420.854,179.679c21.123,0,33.958-11.765,47.327-27.006h9.091c-15.241,24.6-37.969,49.466-73.53,49.466
			c-25.133,0-41.711-12.3-41.711-42.514c0-30.749,17.38-95.187,72.192-95.187c23.797,0,29.412,12.299,29.412,25.668
			c0,30.749-29.412,54.545-61.497,56.417c-0.268,3.743-0.535,7.486-0.535,10.695C401.604,175.401,408.021,179.679,420.854,179.679z
			 M436.363,78.609c-13.637,0-26.738,28.61-32.086,55.081c20.588-1.337,38.771-21.925,38.771-44.118
			C443.048,82.888,441.443,78.609,436.363,78.609z"/>
		<path fill="#ED1C24" d="M524.864,66.845l-3.476,16.578c9.357-8.021,19.519-16.578,32.353-16.578
			c12.032,0,18.449,9.893,18.449,20.054c0,9.358-6.149,19.519-19.251,19.519c-14.974,0-7.487-17.647-15.509-17.647
			s-12.834,4.011-19.519,10.16l-21.391,101.604H458.02l28.342-133.69H524.864z"/>
		<g>
			<path fill="#ED1C24" d="M691.709,66.845h-38.771l-18.182,85.829c-4.011,13.369-10.963,23.529-21.391,23.529
				c-6.149,0-8.021-5.614-8.021-11.765c0-2.139,0.268-4.545,0.803-6.684l19.251-90.91h-38.503l-18.182,85.829
				c-1.337,6.417-2.139,12.3-2.139,17.38c0,22.46,12.566,32.086,28.609,32.086c9.091,0,21.123-2.406,32.62-15.508l-2.674,11.765
				c-17.505,5.159-32.849,10.447-40.698,21.373c-0.002-0.007-0.005-0.015-0.007-0.021c-1.506,2.281-3.658,3.902-5.611,5.81
				c-1.8,1.758-3.646,3.47-5.57,5.089c-3.894,3.276-8.108,6.142-12.609,8.516c-17.324,9.138-38.258,12.885-57.557,14.91
				c-5.193,0.544-10.409,0.884-15.628,1.056c-17.984,0.593-36.046-0.621-53.943-1.729c-15.655-0.969-31.233-2.906-46.807-4.725
				c-19.64-2.293-39.18-5.099-58.706-8.205c-130-21.5-285.001,22.164-285.001,22.164c88.667,8.666,68.667,92,68.667,92
				c4.479-3.45,9.031-6.562,13.908-9.451c26.137-15.486,54.103-29.139,83.045-38.438c20.358-6.541,41.396-10.462,62.706-12.099
				c19.501-1.498,39.028-2.381,58.575-1.328c18.044,0.972,36.007,3.086,54.058,3.949c17.144,0.819,34.337,0.789,51.482,0.009
				c13.406-0.61,26.785-1.703,40.125-3.152c45.429-4.938,90.231-14.166,134.985-23.176c25.667-5.167,34.987-18.452,34.987-18.452
				s-0.07,0.001-0.193,0.002c5.913-6.848,10.827-16.645,13.749-30.572L691.709,66.845z M623.26,206.952l-3.209,15.775
				c-3.476,15.775-10.428,20.855-15.775,20.855c-5.883,0-10.695-5.08-10.695-8.823C593.58,220.321,606.414,212.567,623.26,206.952z"
				/>
		</g>
	</g>
</g>
</svg>
